<svg xmlns="http://www.w3.org/2000/svg" viewBox="0 0 640 480" role="img" aria-labelledby="title desc">
<title id="title">Pañoleta de Clanthea</title><desc id="desc">Ilustración festiva de una pañoleta con amarillo, rosa, verde pastel y rosa intenso.</desc>
<defs><filter id="shadow" x="-20%" y="-20%" width="140%" height="160%"><feDropShadow dx="0" dy="18" stdDeviation="14" flood-color="#40234f" flood-opacity=".2"/></filter><clipPath id="scarf"><path d="M86 70h468L357 386c-18 28-56 28-74 0z"/></clipPath></defs>
<g filter="url(#shadow)"><path d="M86 70h468L357 386c-18 28-56 28-74 0z" fill="#ffd84a"/>
<g clip-path="url(#scarf)" transform="rotate(-12 320 230)"><rect x="-80" y="0" width="190" height="600" fill="#ffd84a"/><rect x="110" y="0" width="150" height="600" fill="#ff4ca0"/><rect x="260" y="0" width="150" height="600" fill="#a8dfb5"/><rect x="410" y="0" width="190" height="600" fill="#ff73ba"/></g>
<path d="M86 70h468L357 386c-18 28-56 28-74 0z" fill="none" stroke="#ffffff" stroke-width="12" stroke-linejoin="round" opacity=".9"/>
<path d="M270 333c18 17 82 17 100 0l-13 53c-18 28-56 28-74 0z" fill="#6f3aa8" stroke="#fff" stroke-width="8"/>
</g>
<g fill="none" stroke="#6f3aa8" stroke-linecap="round" stroke-width="8" opacity=".7"><path d="M160 110c36 28 52 72 46 118"/><path d="M480 110c-36 28-52 72-46 118"/></g>
</svg>